<?xml version="1.0" encoding="UTF-8"?>
<!DOCTYPE svg PUBLIC "-//W3C//DTD SVG 1.1//EN" "http://www.w3.org/Graphics/SVG/1.1/DTD/svg11.dtd">
<!-- Creator: CorelDRAW -->
<svg xmlns="http://www.w3.org/2000/svg" xml:space="preserve" width="20mm" height="20mm" version="1.1" style="shape-rendering:geometricPrecision; text-rendering:geometricPrecision; image-rendering:optimizeQuality; fill-rule:evenodd; clip-rule:evenodd"
viewBox="0 0 2000 2000"
 xmlns:xlink="http://www.w3.org/1999/xlink"
 xmlns:xodm="http://www.corel.com/coreldraw/odm/2003">
 <defs>
  <style type="text/css">
   <![CDATA[
    .fil0 {fill:#FEFEFE}
   ]]>
  </style>
 </defs>
 <g id="Слой_x0020_1">
  <metadata id="CorelCorpID_0Corel-Layer"/>
  <path class="fil0" d="M363.96 303.35l-3.39 0.57c-13.18,53.32 35.68,80.36 67.79,103.08l0.02 0.01c13.8,9.78 19.44,16.38 29.69,28.77 13.44,-18.23 37.51,-38.82 67.45,-60.72 -59.16,-37.7 -120.54,-77.46 -161.56,-71.71zm-7.29 1315.86c12.16,39.15 19.51,59.11 55.04,86.93 1.01,-0.87 2.17,-1.89 3.46,-3.01l0.04 -0.05c26.62,-23.15 48.15,-42.4 69.31,-74.49 -6.37,-2.54 -13.47,-5.78 -20.42,-10.82 -34.58,1.25 -75.08,1.65 -107.43,1.44zm484.84 -1419.96c17.45,-4.59 35.67,6.91 40.61,25.59 4.91,18.7 -5.28,37.69 -22.71,42.29 -17.42,4.59 -35.64,-6.91 -40.6,-25.6 -4.92,-18.7 5.29,-37.7 22.7,-42.28zm-564.37 523.06c-7.49,8.21 -10.89,13.16 -16.51,21.72 -78.09,119.41 16.98,271.67 15.79,405.66 8.27,144.89 -74.99,421.32 7.62,434.67 44.1,0.71 101.8,2.4 146.23,1.35 -1.67,-1.22 -3.26,-2.55 -4.77,-3.97 -54.01,-34.61 15.02,-301.9 -2.28,-433.96 -15.25,-265.62 -88.33,-383.82 9.53,-423.22 -54.23,-1.55 -105.5,-0.95 -155.61,-2.25zm506.21 -560.48l-10.25 -38.24 32.85 -3.34 -14.58 -34.01 39.54 -10.58 4.37 36.73 30.13 -13.54 10.25 38.24 -32.86 3.35 14.52 33.79 -39.54 10.6 -4.32 -36.53 -30.11 13.53zm920.48 199.05c1.13,1.04 31.75,29.18 32.82,30.21 114.03,109.23 -6.81,186.38 -34.75,297.83l-166.52 0c4.98,-73.96 28.06,-113.49 47.54,-141.12 21.75,-30.85 45.87,-64.69 27.28,-94.29 29.61,-23.02 81.07,-48.19 90.75,-93.25 0.96,0.19 1.92,0.39 2.88,0.62zm-36.68 -57.53l3.39 0.57c13.18,53.32 -35.68,80.36 -67.79,103.08l-0.02 0.01c-13.8,9.78 -19.44,16.38 -29.69,28.77 -13.44,-18.23 -37.51,-38.82 -67.45,-60.72 59.16,-37.7 120.54,-77.46 161.56,-71.71zm7.29 1315.86c-12.17,39.15 -19.51,59.11 -55.04,86.93 -1.01,-0.87 -2.17,-1.89 -3.46,-3.01l-0.04 -0.05c-26.62,-23.15 -48.15,-42.4 -69.31,-74.49 6.37,-2.54 13.47,-5.78 20.42,-10.82 34.58,1.25 75.08,1.65 107.43,1.44zm-484.84 -1419.96c-17.45,-4.59 -35.67,6.91 -40.61,25.59 -4.91,18.7 5.28,37.69 22.7,42.29 17.43,4.59 35.65,-6.91 40.61,-25.6 4.92,-18.7 -5.29,-37.7 -22.7,-42.28zm130.23 229.76c89.25,-16.5 247.33,-168.79 331.99,-156.93 -42.39,-21.82 -79.95,-46.04 -112.66,-72.69 -45.05,-10.66 -140.58,47.37 -173.25,70.92 -32.91,23.71 -45.5,24.68 -45.5,24.68 31.28,-23.8 39.25,-48.79 47.69,-92.28 11.21,-57.2 19.88,-65.26 26.01,-67.28 20.68,-6.83 -60.03,-38.55 -74.33,46.29 -6.29,37.35 2.18,51.62 -9.19,53.82 -11.36,2.18 -5.34,-15.61 -13.56,-32.74 -8.22,-17.11 -37.7,-10.46 -54.2,18.21 -6.76,11.77 -9.45,25.52 -10.12,38.52 -0.47,9.14 0,17.28 0.93,26.32 -9.24,1.76 -79.37,11.48 -123.05,-26.72 10.59,-8.4 17.4,-21.48 17.4,-36.18 0,-16.98 -9.08,-31.8 -22.58,-39.74 12.98,-15.14 6.96,-45.35 -20.92,-46.25 2.06,9.83 -1.2,19.56 -9,24.18 -10.3,6.1 -24.6,1 -31.95,-11.4 -7.34,-12.38 -4.94,-27.38 5.35,-33.48 6.84,-4.04 15.43,-3.17 22.57,1.5 3.46,-6.05 8.89,-21.43 -12.27,-37.22 -11.74,-8.78 -21.25,-13.08 -25.62,-15.89 -9.03,-5.82 -15.41,-15.01 -18.02,-25.32 -2.6,10.31 -8.98,19.5 -18.01,25.32 -4.37,2.81 -13.88,7.11 -25.62,15.89 -21.16,15.79 -15.73,31.17 -12.27,37.22 7.14,-4.67 15.73,-5.54 22.56,-1.5 10.3,6.1 12.7,21.1 5.36,33.48 -7.35,12.4 -21.65,17.5 -31.95,11.4 -7.8,-4.62 -11.06,-14.35 -9,-24.18 -27.88,0.9 -33.9,31.11 -20.92,46.25 -13.5,7.94 -22.58,22.76 -22.58,39.74 0,14.7 6.81,27.78 17.4,36.18 -43.68,38.2 -113.81,28.48 -123.06,26.72 0.94,-9.04 1.41,-17.18 0.94,-26.32 -0.67,-13 -3.36,-26.75 -10.12,-38.52 -16.5,-28.67 -45.98,-35.32 -54.2,-18.21 -8.22,17.13 -2.2,34.92 -13.56,32.74 -11.37,-2.2 -2.9,-16.47 -9.19,-53.82 -14.3,-84.84 -95.01,-53.12 -74.33,-46.29 6.13,2.02 14.8,10.08 26.01,67.28 8.44,43.49 16.41,68.48 47.69,92.28 0,0 -12.59,-0.97 -45.5,-24.68 -32.67,-23.55 -128.2,-81.58 -173.25,-70.92 -32.71,26.65 -70.27,50.87 -112.66,72.69 84.65,-11.86 242.74,140.43 331.99,156.93 62.02,-57.86 175.01,-96.67 304.27,-97.05 129.27,0.38 242.26,39.19 304.28,97.05zm434.14 293.3c7.49,8.21 10.89,13.16 16.51,21.72 78.09,119.41 -16.98,271.67 -15.79,405.66 -8.27,144.89 74.99,421.32 -7.63,434.67 -44.09,0.71 -101.8,2.4 -146.22,1.35 1.67,-1.22 3.26,-2.55 4.77,-3.97 54.01,-34.61 -15.02,-301.9 2.28,-433.96 15.25,-265.62 88.33,-383.82 -9.54,-423.22 54.24,-1.55 105.51,-0.95 155.62,-2.25zm-738.42 949.4c16.36,-41.24 54.91,-82.71 103.99,-86.98 85.28,0 188.11,0 273.41,0 51.04,0.12 78.7,-16.52 82.99,-85.24l0 -364.74c-4.53,0.3 -11.13,1.67 -19.57,4.53 -9.04,3.07 -19.19,7.71 -29.77,14.37 -15.92,10.01 -31.49,18.6 -47.3,24.88 -18.12,7.2 -36.45,11.37 -55.6,11.32l-0.33 0c-19.15,-0.12 -37.25,-4.32 -55.01,-11.46 -15.36,-6.18 -30.77,-14.74 -46.68,-24.74 -9.43,-5.93 -19.03,-10.95 -28.52,-14.35 -8.09,-2.91 -15.91,-4.65 -23.13,-4.65 -7.47,-0.01 -15.42,1.69 -23.5,4.59 -9.26,3.32 -18.91,8.36 -28.52,14.41 -15.77,9.91 -31.21,18.45 -46.98,24.77 -17.94,7.19 -36.15,11.4 -55.28,11.43 -19.09,0.04 -37.37,-4.14 -55.48,-11.36 -15.8,-6.3 -31.32,-14.87 -47.18,-24.84 -9.37,-5.89 -18.88,-10.89 -28.21,-14.27 -8.08,-2.93 -15.87,-4.69 -22.98,-4.73 -7.23,-0.04 -15.24,1.7 -23.65,4.69 -9.89,3.51 -19.58,8.49 -28.84,14.31 -15.76,9.91 -31.21,18.45 -46.97,24.77 -17.94,7.19 -36.15,11.4 -55.27,11.43 -19.1,0.04 -37.38,-4.14 -55.49,-11.36 -15.79,-6.3 -31.32,-14.86 -47.18,-24.84 -10.59,-6.66 -20.74,-11.3 -29.78,-14.37 -8.44,-2.86 -15.02,-4.23 -19.55,-4.53l0 364.74c4.29,68.72 31.95,85.36 82.99,85.24 85.3,0 188.13,0 273.41,0 49.08,4.27 87.63,45.74 103.98,86.98zm232.21 -1509.88l10.25 -38.24 -32.85 -3.34 14.58 -34.01 -39.53 -10.58 -4.39 36.73 -30.12 -13.54 -10.25 38.24 32.86 3.35 -14.52 33.79 39.54 10.58 4.32 -36.51 30.11 13.53zm-246.92 1594.34l33.67 -0.07c186.93,-3.19 362.38,-33.44 452.77,-78.16 8.86,-3.81 15.04,-7.37 19.12,-10.72 3.89,-2.83 7.25,-6.38 9.88,-10.41 24.56,27.14 50.51,53.57 79.3,78.61 10.44,13.58 5.49,26.92 -13.71,39.74 -118.49,80.15 -339.41,128.6 -565.95,130.83l0 -0.12 -0.74 0 0 0.12 -7.94 -0.11 -0.3 0 0 0c-223.63,-3.31 -440.65,-51.55 -557.7,-130.72 -19.2,-12.82 -24.15,-26.16 -13.71,-39.74 28.79,-25.04 54.74,-51.47 79.3,-78.61 2.63,4.03 5.99,7.58 9.88,10.41 4.08,3.35 10.26,6.91 19.11,10.72 91.08,45.06 268.5,75.42 457.02,78.23zm-209.16 -1248.74l-21.44 0 -215.07 0 0 459.41c13.42,0.22 30.86,2.93 49.8,9.36 15.27,5.18 32.23,12.91 49.7,23.9 11.48,7.23 22.2,13.21 32.07,17.15 7.57,3.01 14.42,4.77 20.43,4.76 5.84,-0.01 12.62,-1.79 20.22,-4.83 9.76,-3.92 20.42,-9.89 31.84,-17.08 15.19,-9.56 31.08,-17.73 47.28,-23.49 17.7,-6.28 36.35,-9.92 55.76,-9.8 18.97,0.1 37.27,3.9 54.71,10.23 16.22,5.88 31.72,13.9 46.29,23.06 11.47,7.21 22.18,13.21 32.06,17.15 7.57,3.01 14.42,4.77 20.42,4.76 5.84,-0.01 12.63,-1.79 20.22,-4.83 9.77,-3.92 20.43,-9.89 31.85,-17.08 14.64,-9.2 30.35,-17.26 46.98,-23.2 17.8,-6.38 36.3,-10.13 55.23,-10.11 19.09,0.04 37.57,3.8 55.24,10.16 16.28,5.85 31.88,13.9 46.59,23.15 11.2,7.05 21.82,12.97 31.92,17.03 7.61,3.06 14.31,4.85 19.92,4.88l0.19 0c5.96,0.02 12.79,-1.72 20.36,-4.72 9.91,-3.94 20.66,-9.95 32.17,-17.19 17.47,-10.99 34.44,-18.72 49.7,-23.9 18.95,-6.44 36.39,-9.14 49.82,-9.36l0 -459.41 -188.82 0 -47.92 0 -447.52 0zm-33.07 -65.85l15.26 30.41 483.26 0 15.37 -30.41c-64.6,-38.07 -155.78,-61.9 -256.95,-62.18 -101.16,0.28 -192.34,24.11 -256.94,62.18zm-431.33 -80.7c-1.13,1.04 -31.76,29.18 -32.82,30.21 -114.03,109.23 6.81,186.38 34.75,297.83l166.52 0c-4.98,-73.96 -28.06,-113.49 -47.54,-141.12 -21.75,-30.85 -45.87,-64.69 -27.29,-94.29 -29.6,-23.02 -81.06,-48.19 -90.75,-93.25 -0.95,0.19 -1.91,0.39 -2.87,0.62zm413.84 252.89l34.58 38.37 47.35 -5.46 -3.53 50.84 37.42 28.56 -39.54 33.55 5.65 45.91 -52.44 -3.43 -29.49 36.31 -34.56 -38.34 -47.34 5.46 3.53 -50.85 -37.47 -28.61 39.58 -33.51 -5.64 -45.89 52.42 3.41 29.48 -36.32zm548.87 0l-34.58 38.37 -47.35 -5.46 3.53 50.84 -37.42 28.56 39.54 33.55 -5.65 45.91 52.44 -3.43 29.49 36.31 34.56 -38.34 47.34 5.46 -3.54 -50.85 37.48 -28.61 -39.58 -33.51 5.64 -45.89 -52.42 3.41 -29.48 -36.32zm-274.44 0.31l29.25 36.01 52.4 -3.41 -5.62 45.89 39.55 33.51 -37.45 28.61 3.52 50.85 -47.33 -5.46 -34.32 38.06 -34.31 -38.06 -47.33 5.46 3.52 -50.85 -37.45 -28.61 39.55 -33.51 -5.62 -45.89 52.4 3.41 29.24 -36.01z"/>
 </g>
</svg>
