<?xml version="1.0" encoding="UTF-8"?>
<!DOCTYPE svg PUBLIC "-//W3C//DTD SVG 1.1//EN" "http://www.w3.org/Graphics/SVG/1.1/DTD/svg11.dtd">
<!-- Creator: CorelDRAW -->
<svg xmlns="http://www.w3.org/2000/svg" xml:space="preserve" width="100mm" height="100mm" version="1.1" style="shape-rendering:geometricPrecision; text-rendering:geometricPrecision; image-rendering:optimizeQuality; fill-rule:evenodd; clip-rule:evenodd"
viewBox="0 0 10000 10000"
 xmlns:xlink="http://www.w3.org/1999/xlink"
 xmlns:xodm="http://www.corel.com/coreldraw/odm/2003">
 <defs>
  <style type="text/css">
   <![CDATA[
    .fil0 {fill:black}
   ]]>
  </style>
 </defs>
 <g id="Слой_x0020_1">
  <metadata id="CorelCorpID_0Corel-Layer"/>
  <path class="fil0" d="M3598.33 4772.54l0 -1032.54c0,-12.58 3.81,-16.38 16.39,-16.38l2092.36 0c26.67,0 16.41,56.43 16.4,81.94l-0.01 3032.02c-0.01,46.74 -9.37,87.41 16.4,87.41l781.22 0 0 1043.45c0,12.58 -3.81,16.39 -16.4,16.39l-2889.97 0c-12.58,0 -16.39,-3.81 -16.39,-16.39l0 -1043.45 781.23 0c26.77,0 16.38,-62.04 16.38,-114.72l0 -2021.34 -759.84 0.46c-20.36,0.16 -37.77,4.22 -37.77,-16.85zm622.8 -2212.55c0,-173.87 38.92,-326.78 128.92,-461.1 114.52,-170.95 232.4,-258.54 429.7,-324.21 162.43,-54.07 407.04,-32.4 546.72,45.99 172.86,97.05 270.67,191.71 362.47,375.05 102.29,204.3 94.44,478.26 1.69,686.51 -78.31,175.8 -197.47,281.06 -360.72,376.81 -163.56,95.93 -430.02,99.34 -613.22,29.1 -19.29,-7.39 -45,-20.26 -63.14,-29.73 -257.12,-134.12 -432.42,-405.22 -432.42,-698.42zm-3035.76 5412.2c383.69,437.92 526.12,558.2 990.25,927.27 142.44,103.66 298.43,196.59 454,283.53 226.27,126.45 467.88,234.82 713.94,318.58 1233.93,382.27 2412.08,390.13 3616.37,-171.03 525.12,-262.28 1120.95,-627.41 1498.94,-1079.64 55.75,-66.69 120.7,-128.99 174.12,-197.36l162.04 -204c123.55,-149.11 334.12,-491.53 428.46,-680.53 101.01,-202.34 193.13,-398.99 267.52,-617.51 38.24,-112.34 76.65,-223.7 104.71,-337.8 244.64,-995.2 229.81,-1876.93 -104.71,-2859.58 -49.26,-144.72 -109.03,-285.93 -171.03,-418.98l-47.32 -100.19c-24.05,-48.09 -45.74,-99.15 -73.61,-144.91 -10.95,-17.98 -16.11,-31.05 -26.63,-49.86 -18.42,-32.97 -33.85,-61.5 -53.23,-94.26 -1319.7,-2231.04 -4026.61,-3055.62 -6393.13,-1874.35l-96.44 51.06c-32.97,18.43 -61.5,33.87 -94.26,53.25 -632.18,373.92 -1066.19,775.62 -1508.64,1364.94 -116.69,156.01 -218.7,327.67 -314.65,499.36 -126.44,226.27 -234.81,467.88 -318.57,713.94 -542.6,1593.94 -256.5,3323.23 791.87,4618.07z"/>
 </g>
</svg>
