<?xml version="1.0" encoding="UTF-8"?>
<!DOCTYPE svg PUBLIC "-//W3C//DTD SVG 1.1//EN" "http://www.w3.org/Graphics/SVG/1.1/DTD/svg11.dtd">
<!-- Creator: CorelDRAW -->
<svg xmlns="http://www.w3.org/2000/svg" xml:space="preserve" width="100mm" height="100mm" version="1.1" style="shape-rendering:geometricPrecision; text-rendering:geometricPrecision; image-rendering:optimizeQuality; fill-rule:evenodd; clip-rule:evenodd"
viewBox="0 0 10000 10000"
 xmlns:xlink="http://www.w3.org/1999/xlink"
 xmlns:xodm="http://www.corel.com/coreldraw/odm/2003">
 <defs>
  <style type="text/css">
   <![CDATA[
    .fil0 {fill:black}
   ]]>
  </style>
 </defs>
 <g id="Слой_x0020_1">
  <metadata id="CorelCorpID_0Corel-Layer"/>
  <path class="fil0" d="M3667.67 3699.15c0,-362.87 158.67,-685.81 402.74,-920.76l129.34 -103.81c520.03,-359.19 1190.9,-290.78 1636.75,172.39 73.67,76.53 178.4,231.81 218.58,330.02 37.74,92.28 54.75,134.08 79.99,235.46 70.19,281.93 29.48,545.42 -76.02,792.26 -59.41,139 -154.29,271.3 -253.55,370.5 -552.95,505.57 -1317.12,512.59 -1837.87,-71.96 -48.53,-54.47 -95.01,-120.76 -130.64,-184.8 -104.11,-187.11 -169.32,-399.26 -169.32,-619.3zm-2070.98 363.45c0,26.28 9.43,0.65 13.59,41.28 2.02,19.7 -0.77,38.42 1.92,59.8 217.74,1732.41 1668.71,3567.15 2706.93,4781.49 33.59,44.01 77.46,81.88 112.62,127.4 51.33,66.46 113.57,129.65 173.69,189.76 20.03,20.04 39.94,37.57 58.23,58.34l60.94 62.51c265.65,210.71 430.06,-33.84 607.86,-213.29 14.86,-15 15.85,-18.56 27.99,-33.73 1081.26,-1237.35 2445.37,-2975.12 2813.34,-4613.37 27.08,-98.73 35.31,-205.49 57.01,-306.44l24.79 -215.22c1.03,-39.34 -3.06,-84.87 0.12,-123.32 2.95,-35.67 7.4,-64.21 6.77,-110.35 -0.56,-41.83 -7.36,-66.39 -7.15,-116.29 0.37,-85.8 -12.69,-149.18 -13.65,-226.36l-45.44 -318.01c-41.4,-167.54 -74.05,-309.24 -133,-470.46 -253.45,-693.09 -719.19,-1340.94 -1353.06,-1732.83 -87.01,-53.8 -169.81,-111.19 -262.26,-156.06 -1531.07,-743.17 -3477.66,-283.52 -4329.71,1196.53 -15.88,27.58 -28.23,49.52 -45.39,78.05 -68.9,114.56 -173.59,313.92 -222.64,435.68l-81.83 226.76c-37.59,92.3 -80.02,272.64 -102.47,377.56 -71.57,420.62 -69.2,539.05 -69.2,1000.57z"/>
 </g>
</svg>
