<?xml version="1.0" encoding="UTF-8"?>
<!DOCTYPE svg PUBLIC "-//W3C//DTD SVG 1.1//EN" "http://www.w3.org/Graphics/SVG/1.1/DTD/svg11.dtd">
<!-- Creator: CorelDRAW -->
<svg xmlns="http://www.w3.org/2000/svg" xml:space="preserve" width="100mm" height="100mm" version="1.1" style="shape-rendering:geometricPrecision; text-rendering:geometricPrecision; image-rendering:optimizeQuality; fill-rule:evenodd; clip-rule:evenodd"
viewBox="0 0 10000 10000"
 xmlns:xlink="http://www.w3.org/1999/xlink"
 xmlns:xodm="http://www.corel.com/coreldraw/odm/2003">
 <defs>
  <style type="text/css">
   <![CDATA[
    .fil0 {fill:black}
   ]]>
  </style>
 </defs>
 <g id="Слой_x0020_1">
  <metadata id="CorelCorpID_0Corel-Layer"/>
  <path class="fil0" d="M3601.09 3409.91c-199.61,0 -2223.74,206.31 -2569.34,229.95 -288.46,19.73 -457.91,226.34 -476.43,449.55l0 82.22c10.18,121.6 65.71,241.99 171.71,334.17l968.34 845.04c53.68,53.38 88.7,71.38 140.85,123.24 53.67,53.38 88.69,71.38 140.84,123.24 53.68,53.38 88.7,71.38 140.85,123.24 53.77,53.48 89.42,71.41 141.02,123.06l140.72 123.37c90.39,84.59 185.86,175.19 285.95,242.21 -37.35,77.84 -598.59,2582.37 -598.59,2676.06 0,241.08 221.7,475.35 475.35,475.35 206.04,0 456.58,-187.53 659.03,-309.28l1840.97 -1099.17 2126.96 1270.93c213.82,129.12 457.51,231.64 695.02,1.75 227.54,-220.24 145.77,-435.38 89.95,-681.08l-151.34 -658.53c-25.56,-109.15 -47.36,-226.2 -77.53,-345l-225.15 -989.64c-18.55,-81.38 -55.93,-288.83 -81.15,-341.39l1949.07 -1695.3c109.89,-90.99 169.26,-214 181.21,-339.03l0 -94.81c-20.81,-217.42 -184.97,-417.79 -476.64,-439.99 -288.19,-21.94 -567.4,-44.09 -858.58,-74.52 -271.44,-28.36 -579.24,-54.06 -850.68,-82.42l-859.87 -73.22c-6.84,-82.22 -848.26,-2009.94 -920.37,-2178.22 -51.47,-120.1 -93.98,-248.94 -168.05,-342.52 -181.13,-228.83 -551.05,-232.57 -737.83,-9.74 -106.04,126.51 -810.01,1829.93 -945.39,2153.21 -33.97,81.13 -145,306.39 -150.9,377.27z"/>
 </g>
</svg>
