<?xml version="1.0" encoding="UTF-8"?>
<!DOCTYPE svg PUBLIC "-//W3C//DTD SVG 1.1//EN" "http://www.w3.org/Graphics/SVG/1.1/DTD/svg11.dtd">
<!-- Creator: CorelDRAW -->
<svg xmlns="http://www.w3.org/2000/svg" xml:space="preserve" width="100mm" height="100mm" version="1.1" style="shape-rendering:geometricPrecision; text-rendering:geometricPrecision; image-rendering:optimizeQuality; fill-rule:evenodd; clip-rule:evenodd"
viewBox="0 0 10000 10000"
 xmlns:xlink="http://www.w3.org/1999/xlink"
 xmlns:xodm="http://www.corel.com/coreldraw/odm/2003">
 <defs>
  <style type="text/css">
   <![CDATA[
    .fil0 {fill:black}
   ]]>
  </style>
 </defs>
 <g id="Слой_x0020_1">
  <metadata id="CorelCorpID_0Corel-Layer"/>
  <path class="fil0" d="M6393.18 4689.54c0,-298.56 169.96,-540.46 430.38,-668.93 594.17,-293.12 1242.41,369.46 966.27,958.58 -41.49,88.5 -84.42,154.98 -149.36,219.65 -37.59,37.43 -56.91,52.54 -99.62,84.88 -39.33,29.79 -73.26,45.26 -117.44,67.05 -352.4,173.85 -775.41,12.81 -961.17,-361.3 -38.59,-77.71 -69.06,-208.46 -69.06,-299.93zm-2060.24 0c0,-98.6 31.31,-227.68 63.97,-297.35 41.48,-88.5 84.41,-154.98 149.35,-219.64 74.45,-74.14 124.32,-106.18 217.06,-151.94 352.4,-173.84 775.42,-12.81 961.18,361.3 16.68,33.6 37.81,94.17 47.8,136.7 71.63,304.85 -51.58,583.26 -291.68,765.11 -193.3,146.4 -489.22,176.97 -712.16,69.6 -261.34,-125.86 -435.52,-378.27 -435.52,-663.78zm-2090.98 0c0,-298.56 169.96,-540.46 430.38,-668.93 352.4,-173.84 775.41,-12.81 961.17,361.3 88.81,178.85 88.34,419.69 5.1,597.28 -84.61,180.5 -194.09,286.56 -366.42,371.58 -273.25,134.8 -605.71,59.27 -813.07,-148.09 -129.02,-129.03 -217.16,-324.31 -217.16,-513.14zm-1691.24 -2529.17l0 6365.2c0,175.19 90.04,339.88 201.8,451.64 205.38,205.39 530.06,264.25 779.65,137.75 714.91,-362.33 1439.22,-713.65 2155.02,-1073.7 56.98,-28.66 44.83,-31.36 130.64,-30.8 1335.54,8.62 2698.55,0.05 4035.96,0.05 156.56,0 832.19,10.12 956.61,-12.01 249.09,-44.29 446.14,-182.11 590.9,-377.72 13.8,-18.64 17.74,-27.97 29.94,-46.93 78.61,-122.19 136.85,-287.73 136.85,-439.71l0 -4973.77c0,-162.98 -74.28,-361.65 -166.79,-486.64 -100.99,-136.47 -201.12,-224.6 -358.41,-302.72 -84.47,-41.95 -228.57,-87.01 -351.17,-87.01l-7264.63 0c-225.01,0 -419.13,102.69 -574.72,240.15 -59.42,52.49 -81.33,78.46 -131.53,145.22 -31.89,42.42 -57.73,89.12 -83.09,139.84 -41.95,83.91 -87.03,229.07 -87.03,351.16z"/>
 </g>
</svg>
