<?xml version="1.0" encoding="UTF-8"?>
<!DOCTYPE svg PUBLIC "-//W3C//DTD SVG 1.1//EN" "http://www.w3.org/Graphics/SVG/1.1/DTD/svg11.dtd">
<!-- Creator: CorelDRAW -->
<svg xmlns="http://www.w3.org/2000/svg" xml:space="preserve" width="100mm" height="100mm" version="1.1" style="shape-rendering:geometricPrecision; text-rendering:geometricPrecision; image-rendering:optimizeQuality; fill-rule:evenodd; clip-rule:evenodd"
viewBox="0 0 10000 10000"
 xmlns:xlink="http://www.w3.org/1999/xlink"
 xmlns:xodm="http://www.corel.com/coreldraw/odm/2003">
 <defs>
  <style type="text/css">
   <![CDATA[
    .fil0 {fill:#2B2A29}
   ]]>
  </style>
 </defs>
 <g id="Слой_x0020_1">
  <metadata id="CorelCorpID_0Corel-Layer"/>
  <path class="fil0" d="M7689.12 5867.96c-190.81,-116.5 -415.35,-165.39 -637.19,-139.05 -222.08,26.56 -428.77,126.77 -586.78,284.79l-505.76 505.99c-1385.13,-341.26 -2237.73,-1185.59 -2547.96,-2542.62l508.44 -508.41c158.01,-158.04 258.44,-364.7 285,-586.78 26.34,-222.08 -22.54,-446.38 -139.04,-637.22l-811.98 -1329.33c-78.56,-128.78 -185.25,-237.93 -312.24,-319.39 -126.77,-81.46 -270.51,-133.03 -420.26,-150.87 -149.78,-17.86 -301.54,-1.57 -444.16,47.75 -142.4,49.33 -271.86,130.35 -378.55,237.04l-777.15 777.37c-155.55,155.34 -270.05,347.07 -333.44,557.55 -63.16,210.69 -72.98,433.88 -28.56,649.25l0 1.35c760.19,3631.56 2973.13,5852.54 6653.35,6649.99l0.9 0.24c216.5,46.43 441.02,37.73 653.28,-25.01 212.25,-62.71 405.3,-177.42 561.77,-333.89 225.64,-222.29 518.03,-514.67 775.15,-771.79 106.45,-106.47 187.48,-235.92 237.02,-378.55 49.34,-142.38 65.63,-294.16 47.77,-443.91 -17.86,-149.78 -69.42,-293.51 -150.89,-420.5 -81.46,-126.78 -190.59,-233.68 -319.37,-312.24l-1329.35 -811.76z"/>
 </g>
</svg>
