<?xml version="1.0" encoding="UTF-8"?>
<!DOCTYPE svg PUBLIC "-//W3C//DTD SVG 1.1//EN" "http://www.w3.org/Graphics/SVG/1.1/DTD/svg11.dtd">
<!-- Creator: CorelDRAW -->
<svg xmlns="http://www.w3.org/2000/svg" xml:space="preserve" width="50mm" height="50mm" version="1.1" style="shape-rendering:geometricPrecision; text-rendering:geometricPrecision; image-rendering:optimizeQuality; fill-rule:evenodd; clip-rule:evenodd"
viewBox="0 0 5000 5000"
 xmlns:xlink="http://www.w3.org/1999/xlink"
 xmlns:xodm="http://www.corel.com/coreldraw/odm/2003">
 <defs>
  <style type="text/css">
   <![CDATA[
    .fil0 {fill:#7C7C7C}
   ]]>
  </style>
 </defs>
 <g id="Слой_x0020_1">
  <metadata id="CorelCorpID_0Corel-Layer"/>
  <g id="_2573914253264">
   <path class="fil0" d="M2483.64 3941.18c-21.04,0 -42.75,-18.16 -53.57,-31.31l-111.96 -157.68c-146.52,-197.27 -428.25,-687.38 -521.41,-911.62 -100.93,-242.94 -172.58,-419.75 -209.77,-689.01 -37.69,-272.91 27.24,-564.7 216.39,-768.15 96.18,-103.46 153.42,-152.01 285.86,-218.44 476.66,-239.08 1082.18,6.8 1255.25,532.31 82.34,250.06 40.12,504.55 -28.98,748.88l-159.83 419.38c-59.5,144.03 -224,434.99 -304.64,569.16l-287.41 436.6c-17.34,24.6 -42.12,69.88 -79.93,69.88zm-2471.62 -1497.96c0,258.7 8.32,414.36 69.91,659.11 79.56,316.21 239.35,670.3 440.95,917.18 23.72,29.05 42.26,54.87 67.07,82.73 82.23,92.37 96.22,110.23 182.24,197.24 69.86,70.66 207.08,178.07 290.51,238.77 130.27,94.78 240.18,150.05 382.35,221.83 31.45,15.88 69.81,31.87 104.11,45.68 197.38,79.45 375.65,129.79 592.73,161.23 307.73,44.57 645.44,26.72 944.92,-48.16 75.22,-18.81 161.98,-41.5 230.7,-68.9 147.59,-58.85 158.07,-59.09 316.23,-138.14 165.03,-82.49 331.36,-199.43 471.19,-317.73l140.05 -129.58c226.6,-226.59 425.04,-520.43 542.69,-815.46 15.02,-37.68 27.96,-69.5 40.87,-108.92 7.21,-22.02 13.65,-33.79 19.82,-55.07 6.78,-23.36 11.23,-36.32 17.66,-57.24 11.8,-38.42 23.44,-82.11 33.31,-121.48 175.34,-699.17 29.08,-1438.05 -376.43,-2023.27 -78.22,-112.88 -146.87,-188.11 -235.51,-288.77 -49.74,-56.49 -218.54,-205.31 -278.64,-250.64 -184.07,-138.8 -265.08,-183.21 -471.53,-287.44 -31.46,-15.88 -69.81,-31.87 -104.11,-45.68 -267.49,-107.68 -581.45,-183.98 -874.57,-183.98 -257,0 -411.49,8 -663.08,70.91 -297.8,74.46 -579.57,200.88 -829.86,378.49l-188.26 146.28 -177.6 166.92c-187.12,194.4 -343.31,431.11 -459.76,673.7 -135.61,282.53 -227.96,677.43 -227.96,980.39z"/>
   <path class="fil0" d="M2094.18 2018.81c0,161.38 93.32,302.55 217.92,366.27 53.97,27.6 89.65,33.79 158.12,42.01 86.83,10.44 213.9,-46.74 279.46,-112.3 14.33,-14.33 31.25,-35.48 42.65,-52.21 97.33,-143.05 102.69,-323.34 9.96,-467.55 -60.35,-93.86 -177.08,-175.68 -293.68,-175.68 -140.11,0 -209.53,26.19 -308.43,125.98 -54.09,54.58 -106,165.9 -106,273.48z"/>
  </g>
 </g>
</svg>
