<?xml version="1.0" encoding="UTF-8"?>
<!DOCTYPE svg PUBLIC "-//W3C//DTD SVG 1.1//EN" "http://www.w3.org/Graphics/SVG/1.1/DTD/svg11.dtd">
<!-- Creator: CorelDRAW -->
<svg xmlns="http://www.w3.org/2000/svg" xml:space="preserve" width="50mm" height="50mm" version="1.1" style="shape-rendering:geometricPrecision; text-rendering:geometricPrecision; image-rendering:optimizeQuality; fill-rule:evenodd; clip-rule:evenodd"
viewBox="0 0 5000 5000"
 xmlns:xlink="http://www.w3.org/1999/xlink"
 xmlns:xodm="http://www.corel.com/coreldraw/odm/2003">
 <defs>
  <style type="text/css">
   <![CDATA[
    .fil0 {fill:#7C7C7C}
    .fil1 {fill:#FEFEFE}
   ]]>
  </style>
 </defs>
 <g id="Слой_x0020_1">
  <metadata id="CorelCorpID_0Corel-Layer"/>
  <g id="_2573914325920">
   <path class="fil0" d="M2414.37 1098.93c217.19,-16.22 409.43,41.8 574.7,150.69 30.32,19.99 53.65,42.01 80.24,63.59 53.35,43.27 97.63,88.04 139.33,148.85 90.76,132.34 145,238.74 169.42,411.39 23.87,168.81 -4.64,366.03 -47.07,520.56 -117.38,427.48 -335.76,821.63 -561.63,1181.45 -57.9,92.23 -128.79,187.96 -174.98,262.04 -36.71,58.87 -96.89,160.74 -160.85,77.76l-178.6 -253.16c-222.21,-340.63 -462.14,-755.56 -585.05,-1157.88 -103.6,-339.1 -136.34,-649.77 33.78,-952.74 117.45,-209.17 364.74,-426.71 710.71,-452.55zm-2386.34 1358.9c0,257.26 8.26,412.05 69.51,655.44 79.12,314.45 238.02,666.57 438.5,912.08 23.59,28.89 42.03,54.57 66.7,82.27 81.77,91.85 95.68,109.62 181.22,196.14 69.48,70.27 205.93,177.08 288.9,237.44 129.55,94.26 238.85,149.22 380.22,220.6 31.28,15.79 69.42,31.69 103.53,45.42 196.28,79.02 373.56,129.07 589.44,160.34 306.01,44.32 641.85,26.57 939.66,-47.89 74.8,-18.7 161.08,-41.27 229.41,-68.52 146.77,-58.52 157.2,-58.76 314.48,-137.37 164.11,-82.04 329.51,-198.32 468.57,-315.97l139.27 -128.85c225.34,-225.33 422.68,-517.53 539.67,-810.92 14.94,-37.47 27.81,-69.12 40.65,-108.32 7.17,-21.9 13.57,-33.6 19.71,-54.77 6.74,-23.22 11.16,-36.12 17.56,-56.92 11.73,-38.2 23.31,-81.65 33.12,-120.8 174.37,-695.29 28.92,-1430.05 -374.34,-2012.02 -77.78,-112.25 -146.05,-187.07 -234.2,-287.16 -49.46,-56.18 -217.32,-204.18 -277.09,-249.24 -183.04,-138.03 -263.6,-182.2 -468.9,-285.85 -31.28,-15.79 -69.42,-31.69 -103.53,-45.42 -266,-107.09 -578.22,-182.96 -869.71,-182.96 -255.57,0 -409.2,7.95 -659.4,70.51 -296.14,74.05 -576.34,199.77 -825.24,376.39l-187.21 145.47 -176.62 165.99c-186.07,193.31 -341.4,428.7 -457.19,669.95 -134.87,280.96 -226.69,673.66 -226.69,974.94z"/>
   <path class="fil1" d="M2419.04 1643.01c122.78,-23.37 235.36,21.01 304.01,81.16 261.46,229.08 151.67,653.92 -174.51,711.18 -236.16,41.47 -412.75,-136.4 -443.74,-331.05 -38.1,-239.37 123.03,-424.9 314.24,-461.29zm-4.67 -544.08c-345.97,25.84 -593.26,243.38 -710.71,452.55 -170.12,302.97 -137.38,613.64 -33.78,952.74 122.91,402.32 362.84,817.25 585.05,1157.88l178.6 253.16c63.96,82.98 124.14,-18.89 160.85,-77.76 46.19,-74.08 117.08,-169.81 174.98,-262.04 225.87,-359.82 444.25,-753.97 561.63,-1181.45 42.43,-154.53 70.94,-351.75 47.07,-520.56 -24.42,-172.65 -78.66,-279.05 -169.42,-411.39 -41.7,-60.81 -85.98,-105.58 -139.33,-148.85 -26.59,-21.58 -49.92,-43.6 -80.24,-63.59 -165.27,-108.89 -357.51,-166.91 -574.7,-150.69z"/>
   <path class="fil0" d="M2419.04 1643.01c-191.21,36.39 -352.34,221.92 -314.24,461.29 30.99,194.65 207.58,372.52 443.74,331.05 326.18,-57.26 435.97,-482.1 174.51,-711.18 -68.65,-60.15 -181.23,-104.53 -304.01,-81.16z"/>
  </g>
 </g>
</svg>
