<?xml version="1.0" encoding="UTF-8"?>
<!DOCTYPE svg PUBLIC "-//W3C//DTD SVG 1.1//EN" "http://www.w3.org/Graphics/SVG/1.1/DTD/svg11.dtd">
<!-- Creator: CorelDRAW -->
<svg xmlns="http://www.w3.org/2000/svg" xml:space="preserve" width="50mm" height="50mm" version="1.1" style="shape-rendering:geometricPrecision; text-rendering:geometricPrecision; image-rendering:optimizeQuality; fill-rule:evenodd; clip-rule:evenodd"
viewBox="0 0 5000 5000"
 xmlns:xlink="http://www.w3.org/1999/xlink"
 xmlns:xodm="http://www.corel.com/coreldraw/odm/2003">
 <defs>
  <style type="text/css">
   <![CDATA[
    .fil0 {fill:#7C7C7C}
   ]]>
  </style>
 </defs>
 <g id="Слой_x0020_1">
  <metadata id="CorelCorpID_0Corel-Layer"/>
  <path class="fil0" d="M2079.06 2628.67c89.71,60.07 161.59,237.57 420.69,237.57 227.36,0 325.7,-187.22 400.89,-237.57 22.16,14.85 619.74,615.32 664.54,661.86l79.09 84.25c19.96,19.96 97.3,89.91 102.7,110.12 -24.02,1.99 -48.02,19.79 -89.09,19.79l-2336.06 0c-20.29,0 -29.09,-3.04 -46.67,-7.78 -20.15,-5.43 -24.58,-10.53 -42.42,-12.01 5.65,-21.17 32.9,-40.32 48.26,-55.68l158.38 -163.33c49.95,-49.94 614.97,-620.67 639.69,-637.22zm940.36 -118.78c6.23,-23.33 188.2,-195.63 209.11,-216.53 89.69,-89.7 262.61,-255.66 344.03,-343.91l37.68 -41.51c6.19,-6.64 7.93,-9.14 14.18,-15.52l241.33 -238.76c13.03,24.63 24.74,61.18 24.74,98.99l0 1509.53c0,37.81 -11.71,74.35 -24.74,98.99 -43.3,-29 -244.59,-247.18 -315.52,-318 -53.82,-53.73 -514.47,-508.87 -530.81,-533.28zm-1905.47 851.28c-13.03,-24.64 -24.74,-61.18 -24.74,-98.99l0 -1509.53c0,-37.81 11.71,-74.36 24.74,-98.99 20.42,13.68 200.87,198.05 238.86,236.28l51.95 56.93c8.89,10.14 17.41,17.5 27.18,27.26l477.61 477.6c15.79,15.79 44.95,36.54 50.73,58.16 -22.46,33.54 -477.33,473.31 -553.14,555.5 -11.81,12.79 -12.02,17.11 -25.05,29.39l-10.25 9.54c-0.71,0.73 -1.69,1.83 -2.38,2.58l-41.45 42.69c-32.37,32.36 -193.06,197.51 -214.06,211.58zm118.78 -1831.24c17.84,-1.48 22.27,-6.58 42.42,-12.02 17.58,-4.74 26.38,-7.77 46.67,-7.77l2336.06 0c41.07,0 65.07,17.8 89.09,19.79 -5.38,20.13 -87.58,95.14 -107.7,115.03 -15.97,15.79 -21.85,26.92 -36.97,42.21l-455.43 455.24c-51.53,51.52 -99.41,99.44 -150.96,150.95l-150.95 155.9c-36.38,36.39 -187.65,197.29 -234.55,220.78 -106.72,53.44 -191.65,40.75 -281.05,-29.36 -18.21,-14.27 -25.45,-22.23 -41.19,-37.99l-262.09 -262.54c-67.22,-80.41 -410.21,-414.71 -495.15,-499.65 -51.54,-51.53 -99.33,-99.44 -151.03,-150.88l-140.78 -146.27c-9.07,-13.3 -2.76,-6.51 -6.39,-13.42zm-1207.62 910.67c0,367.59 28.23,553.39 139.16,885.34 30.34,90.8 57.61,139.53 87.81,214.09 32.65,80.62 137.74,261.04 186.69,332.99l161.99 214.16c56.49,67.12 153.66,166.82 219.85,230.53 14.34,13.81 24.41,19.78 39.64,34.61l39.73 34.5c96.91,86.39 243.64,182.19 351.56,247.3 32.69,19.72 62.45,32.75 96.61,51.86 85.83,48.04 166.51,80.4 258.59,117.56 20.1,8.11 34.03,11.84 54.49,19.75 207.25,80.13 537.14,141.44 764.28,141.44 260.31,0 410.18,-8.27 657.26,-70.29 280.97,-70.53 485.36,-162.89 731.4,-312.89 81.76,-49.85 226.3,-158.69 300.23,-224.39l190.69 -185.45 260.46 -338.41 110.25 -186.7c165.73,-307.74 278.79,-730.26 278.79,-1077.32 0,-367.41 -28.27,-553.5 -139.16,-885.34 -34,-101.76 -88.13,-219.25 -136.28,-314.11 -45.42,-89.5 -114.14,-195.48 -170.92,-279.45 -20.42,-30.2 -42.03,-56.99 -63.47,-85.02 -21.7,-28.36 -42,-54.35 -65.82,-82.66 -56.49,-67.12 -153.66,-166.82 -219.85,-230.53l-79.37 -69.11c-9.12,-8.13 -10.27,-7.54 -19.42,-15.23l-151.4 -115.85c-70.69,-53.02 -237.59,-151.59 -325.18,-194.49l-210.76 -91.15c-20.1,-8.11 -34.03,-11.84 -54.49,-19.75 -207.23,-80.11 -537.23,-141.44 -764.28,-141.44 -260.54,0 -409.94,8.27 -657.26,70.29 -36.4,9.13 -79.29,19.13 -116.74,31.73 -110.99,37.35 -221.75,70.78 -326.42,123.97 -212.6,108.03 -269.81,134.95 -465.67,281.66l-313.49 285.37c-14.64,14.8 -19.28,24.73 -34.52,39.73l-166.62 209.52c-11.13,16.14 -19.86,27.97 -30.42,43.81l-112.8 184.17c-67.72,134.6 -111.03,210.97 -163.53,361.1 -81.4,232.84 -141.61,512.28 -141.61,764.1z"/>
 </g>
</svg>
