<?xml version="1.0" encoding="UTF-8"?>
<!DOCTYPE svg PUBLIC "-//W3C//DTD SVG 1.1//EN" "http://www.w3.org/Graphics/SVG/1.1/DTD/svg11.dtd">
<!-- Creator: CorelDRAW -->
<svg xmlns="http://www.w3.org/2000/svg" xml:space="preserve" width="50mm" height="50mm" version="1.1" style="shape-rendering:geometricPrecision; text-rendering:geometricPrecision; image-rendering:optimizeQuality; fill-rule:evenodd; clip-rule:evenodd"
viewBox="0 0 5000 5000"
 xmlns:xlink="http://www.w3.org/1999/xlink"
 xmlns:xodm="http://www.corel.com/coreldraw/odm/2003">
 <defs>
  <style type="text/css">
   <![CDATA[
    .fil0 {fill:#7D7D7D}
    .fil1 {fill:#FEFEFE}
   ]]>
  </style>
 </defs>
 <g id="Слой_x0020_1">
  <metadata id="CorelCorpID_0Corel-Layer"/>
  <g id="_2573923966368">
   <path class="fil0" d="M1682.17 1196.75c60.82,-10.12 87.31,28.07 112.52,60.91 37.75,49.19 176.22,266.83 218.97,330.94 34.75,52.13 112.28,168.08 123.67,243.64 9.46,62.81 -33.62,96.15 -62.31,121.66 -109.13,97.06 -263.61,170.12 -240.07,303.36 17.16,97.14 62.57,185.26 103.53,258.61 94.15,168.61 209.68,278.09 340,387.96 65.3,55.05 343.97,274.07 472.37,260.94 85.93,-8.79 167.13,-108.47 205.44,-160.75 24.85,-33.9 52.12,-71.18 80.78,-102.66 32.66,-35.87 57.21,-55.3 127.82,-37.08 132,34.06 300.74,146.17 409.38,229.91l148.88 123.77c28.63,27.42 61.28,60.53 57.61,125.25 -7.76,136.59 -219.61,337.64 -333.15,395.07 -277.38,140.33 -630.08,74.34 -882.9,-50.3 -311,-153.32 -592.95,-385.98 -820.96,-635.88 -205.92,-225.68 -441.36,-529.49 -533.09,-928.58 -43.73,-190.24 -50.32,-466.55 31.55,-635.32 40.33,-83.17 108.73,-130.21 188.01,-179.32 57.65,-35.73 174.18,-99.17 251.95,-112.13zm-1651.15 1244.73c0,256.68 8.25,411.11 69.35,653.94 78.95,313.74 237.48,665.05 437.51,910 23.53,28.82 41.93,54.44 66.54,82.08 81.59,91.64 95.46,109.37 180.81,195.7 69.31,70.1 205.45,176.67 288.23,236.9 129.26,94.03 238.3,148.87 379.35,220.08 31.22,15.76 69.27,31.62 103.3,45.33 195.83,78.83 372.71,128.77 588.09,159.96 305.31,44.22 640.38,26.52 937.52,-47.78 74.63,-18.66 160.71,-41.17 228.88,-68.36 146.44,-58.39 156.84,-58.63 313.76,-137.06 163.73,-81.84 328.76,-197.86 467.5,-315.24l138.96 -128.56c224.81,-224.81 421.71,-516.35 538.43,-809.07 14.9,-37.38 27.74,-68.95 40.55,-108.07 7.16,-21.84 13.54,-33.52 19.67,-54.64 6.72,-23.17 11.14,-36.04 17.52,-56.79 11.7,-38.12 23.25,-81.46 33.05,-120.52 173.96,-693.7 28.85,-1426.79 -373.49,-2007.42 -77.61,-112 -145.71,-186.64 -233.66,-286.51 -49.35,-56.05 -216.83,-203.71 -276.46,-248.67 -182.63,-137.72 -263,-181.78 -467.83,-285.19 -31.21,-15.76 -69.26,-31.62 -103.29,-45.33 -265.4,-106.83 -576.91,-182.54 -867.72,-182.54 -255,0 -408.27,7.94 -657.89,70.36 -295.47,73.87 -575.03,199.31 -823.36,375.52l-186.79 145.14 -176.21 165.61c-185.65,192.87 -340.62,427.73 -456.15,668.42 -134.55,280.32 -226.17,672.12 -226.17,972.71z"/>
   <path class="fil1" d="M1682.17 1196.75c-77.77,12.96 -194.3,76.4 -251.95,112.13 -79.28,49.11 -147.68,96.15 -188.01,179.32 -81.87,168.77 -75.28,445.08 -31.55,635.32 91.73,399.09 327.17,702.9 533.09,928.58 228.01,249.9 509.96,482.56 820.96,635.88 252.82,124.64 605.52,190.63 882.9,50.3 113.54,-57.43 325.39,-258.48 333.15,-395.07 3.67,-64.72 -28.98,-97.83 -57.61,-125.25l-148.88 -123.77c-108.64,-83.74 -277.38,-195.85 -409.38,-229.91 -70.61,-18.22 -95.16,1.21 -127.82,37.08 -28.66,31.48 -55.93,68.76 -80.78,102.66 -38.31,52.28 -119.51,151.96 -205.44,160.75 -128.4,13.13 -407.07,-205.89 -472.37,-260.94 -130.32,-109.87 -245.85,-219.35 -340,-387.96 -40.96,-73.35 -86.37,-161.47 -103.53,-258.61 -23.54,-133.24 130.94,-206.3 240.07,-303.36 28.69,-25.51 71.77,-58.85 62.31,-121.66 -11.39,-75.56 -88.92,-191.51 -123.67,-243.64 -42.75,-64.11 -181.22,-281.75 -218.97,-330.94 -25.21,-32.84 -51.7,-71.03 -112.52,-60.91z"/>
  </g>
 </g>
</svg>
