<?xml version="1.0" encoding="UTF-8"?>
<!DOCTYPE svg PUBLIC "-//W3C//DTD SVG 1.1//EN" "http://www.w3.org/Graphics/SVG/1.1/DTD/svg11.dtd">
<!-- Creator: CorelDRAW -->
<svg xmlns="http://www.w3.org/2000/svg" xml:space="preserve" width="50mm" height="50mm" version="1.1" style="shape-rendering:geometricPrecision; text-rendering:geometricPrecision; image-rendering:optimizeQuality; fill-rule:evenodd; clip-rule:evenodd"
viewBox="0 0 5000 5000"
 xmlns:xlink="http://www.w3.org/1999/xlink"
 xmlns:xodm="http://www.corel.com/coreldraw/odm/2003">
 <defs>
  <style type="text/css">
   <![CDATA[
    .fil0 {fill:#7D7D7D}
   ]]>
  </style>
 </defs>
 <g id="Слой_x0020_1">
  <metadata id="CorelCorpID_0Corel-Layer"/>
  <path class="fil0" d="M1889.05 2239.16c0,48.13 29.95,126.46 47.26,170.13 19.6,49.46 48.25,100.31 75.29,142.09 8.09,12.5 12.64,22.25 20.7,33.66 43.92,62.11 119.77,158.54 176.69,208.66 116.65,102.72 403.24,339.7 539.72,339.7 110.4,0 201.12,-138.24 266.78,-222.32 83.37,-106.74 131.12,-79.54 294.8,1.63 53.57,26.57 151.74,90.89 202.08,128.94 75.82,57.32 112.52,81.94 183.73,152.23 90.81,89.63 25.08,192.26 -42.53,276.22l-87.69 90.17c-29.44,26.92 -53.6,55.19 -87.42,75.62 -15.93,9.61 -27.88,16.1 -44.08,25.08 -108.13,59.94 -227.45,80.12 -359.6,80.12 -343.42,0 -688.38,-212.02 -944.33,-419.26l-237.69 -216.84c-370.02,-370.02 -723.57,-912.53 -587.69,-1459.7 19.65,-79.1 44.66,-133.17 96.04,-180.62 11.21,-10.35 26.7,-21.96 38.29,-30.87 13.21,-10.15 25.59,-18.62 40.56,-28.62 66.3,-44.27 218.43,-129.42 295.46,-129.42 61.9,0 136.44,142.9 176.88,203.54 62.61,93.91 228.25,319.66 228.25,409.09 0,68.44 -93.06,125.72 -152.03,174.05 -44.81,36.72 -139.47,103.22 -139.47,176.72zm-1847.76 202.56c0,366.95 28.18,552.42 138.91,883.78 30.29,90.64 57.52,139.29 87.66,213.71 32.6,80.49 137.49,260.58 186.36,332.41l161.7 213.78c56.4,67 153.39,166.52 219.46,230.12 14.32,13.79 24.37,19.75 39.57,34.55l39.66 34.44c96.75,86.24 243.21,181.87 350.94,246.86 32.64,19.69 62.35,32.69 96.45,51.77 85.68,47.96 166.22,80.26 258.13,117.35 20.06,8.1 33.96,11.82 54.39,19.72 206.89,79.98 536.2,141.19 762.93,141.19 259.86,0 409.46,-8.25 656.1,-70.16 280.48,-70.41 484.51,-162.61 730.11,-312.35 81.61,-49.76 225.9,-158.4 299.71,-223.99l190.35 -185.13 260 -337.81 110.06 -186.37c165.43,-307.19 278.29,-728.96 278.29,-1075.41 0,-366.76 -28.22,-552.53 -138.91,-883.78 -33.94,-101.58 -87.98,-218.87 -136.04,-313.55 -45.35,-89.35 -113.94,-195.14 -170.62,-278.97 -20.39,-30.13 -41.95,-56.88 -63.36,-84.86 -21.66,-28.32 -41.92,-54.26 -65.7,-82.51 -56.4,-67.01 -153.39,-166.53 -219.46,-230.13l-79.23 -68.99c-9.11,-8.12 -10.26,-7.52 -19.39,-15.2l-151.13 -115.65c-70.57,-52.93 -237.17,-151.32 -324.61,-194.15l-210.39 -90.98c-20.06,-8.09 -33.96,-11.82 -54.39,-19.72 -206.87,-79.97 -536.29,-141.19 -762.93,-141.19 -260.08,0 -409.22,8.25 -656.1,70.17 -36.34,9.11 -79.16,19.09 -116.54,31.68 -110.79,37.28 -221.35,70.65 -325.84,123.74 -212.22,107.84 -269.34,134.72 -464.85,281.17l-312.94 284.87c-14.61,14.77 -19.24,24.67 -34.46,39.65l-166.32 209.16c-11.11,16.1 -19.83,27.91 -30.37,43.73l-112.59 183.84c-67.61,134.36 -110.84,210.6 -163.25,360.46 -81.26,232.43 -141.36,511.37 -141.36,762.75z"/>
 </g>
</svg>
