<?xml version="1.0" encoding="UTF-8"?>
<!DOCTYPE svg PUBLIC "-//W3C//DTD SVG 1.1//EN" "http://www.w3.org/Graphics/SVG/1.1/DTD/svg11.dtd">
<!-- Creator: CorelDRAW -->
<svg xmlns="http://www.w3.org/2000/svg" xml:space="preserve" width="100mm" height="100mm" version="1.1" style="shape-rendering:geometricPrecision; text-rendering:geometricPrecision; image-rendering:optimizeQuality; fill-rule:evenodd; clip-rule:evenodd"
viewBox="0 0 10000 10000"
 xmlns:xlink="http://www.w3.org/1999/xlink"
 xmlns:xodm="http://www.corel.com/coreldraw/odm/2003">
 <defs>
  <style type="text/css">
   <![CDATA[
    .fil0 {fill:white}
   ]]>
  </style>
 </defs>
 <g id="Слой_x0020_1">
  <metadata id="CorelCorpID_0Corel-Layer"/>
  <path class="fil0" d="M6240.84 5352.88c-87.51,-53.43 -190.49,-75.85 -292.23,-63.77 -101.85,12.18 -196.64,58.14 -269.11,130.61l-231.95 232.06c-635.25,-156.51 -1026.27,-543.74 -1168.55,-1166.1l233.18 -233.17c72.47,-72.48 118.53,-167.26 130.71,-269.11 12.08,-101.85 -10.34,-204.72 -63.77,-292.24l-372.39 -609.66c-36.03,-59.06 -84.96,-109.12 -143.2,-146.48 -58.14,-37.36 -124.06,-61.01 -192.74,-69.19 -68.69,-8.19 -138.29,-0.72 -203.7,21.9 -65.31,22.62 -124.68,59.78 -173.61,108.71l-356.42 356.52c-71.34,71.24 -123.85,159.17 -152.92,255.7 -28.97,96.63 -33.47,198.99 -13.1,297.76l0 0.62c348.64,1665.51 1363.54,2684.1 3051.37,3049.83l0.41 0.11c99.29,21.29 202.26,17.3 299.61,-11.47 97.34,-28.76 185.88,-81.37 257.64,-153.13 103.48,-101.95 237.58,-236.04 355.5,-353.96 48.82,-48.83 85.98,-108.2 108.7,-173.61 22.63,-65.3 30.1,-134.91 21.91,-203.59 -8.19,-68.69 -31.84,-134.61 -69.2,-192.85 -37.36,-58.14 -87.41,-107.17 -146.47,-143.2l-609.67 -372.29z"/>
 </g>
</svg>
