<svg width="40" height="40" viewBox="0 0 40 40" fill="none" xmlns="http://www.w3.org/2000/svg">
<rect width="40" height="40" rx="20" fill="#33282C"/>
<path fill-rule="evenodd" clip-rule="evenodd" d="M24.3476 21.5182C24.0244 21.3209 23.6444 21.2381 23.2684 21.2828C22.8925 21.3276 22.5425 21.4975 22.2748 21.7651L21.4186 22.6218C19.073 22.0441 17.6291 20.6142 17.1037 18.3164L17.9649 17.4552C18.2325 17.1875 18.4024 16.8375 18.4472 16.4616C18.492 16.0857 18.4091 15.7056 18.2118 15.3824L16.8371 13.1313C16.704 12.9134 16.5232 12.7284 16.3083 12.5905C16.0934 12.4526 15.85 12.3652 15.5965 12.335C15.3429 12.3047 15.0858 12.3325 14.8445 12.416C14.6032 12.4996 14.384 12.6369 14.2035 12.8174L12.8872 14.1337C12.6238 14.3969 12.4298 14.7214 12.3228 15.0781C12.2158 15.4348 12.199 15.8125 12.2741 16.1772V16.1795C13.5616 22.3293 17.309 26.0902 23.541 27.4407L23.5426 27.4413C23.9091 27.5197 24.2894 27.5051 24.6488 27.3989C25.0082 27.2927 25.3353 27.0982 25.6003 26.8332C25.9822 26.4569 26.4772 25.9619 26.9126 25.5266C27.0932 25.346 27.2304 25.1268 27.314 24.8855C27.3976 24.6442 27.4253 24.3871 27.3951 24.1335C27.3648 23.88 27.2775 23.6366 27.1395 23.4217C27.0016 23.2068 26.8167 23.026 26.5987 22.8929L24.3476 21.5182Z" fill="white"/>
</svg>
